# xmcd CD database file
#
# Track frame offsets:
#	150
#	32197
#	60287
#	87505
#	122545
#	143610
#	169462
#	202700
#	227205
#	249407
#	288315
#
# Disc length: 4212 seconds
#
# Revision: 0
# Processed by: cddbd v1.5.2PL0 Copyright (c) Steve Scherf et al.
# Submitted via: CDex 1.70beta2
#
DISCID=9110720b
DTITLE=Dave Ferris - The Quiet One
DYEAR=1991
DGENRE=Jazz
TTITLE0=The Road To Boston
TTITLE1=Original Music
TTITLE2=Lazy Bones
TTITLE3=A Midwest Moment
TTITLE4=Second Wind
TTITLE5=This One's For Bud
TTITLE6=The Quiet One
TTITLE7=Mr. Midnight
TTITLE8=Rhythm 8
TTITLE9=The Village
TTITLE10=Ballade
EXTD=YEAR: 1991
EXTT0=
EXTT1=
EXTT2=
EXTT3=
EXTT4=
EXTT5=
EXTT6=
EXTT7=
EXTT8=
EXTT9=
EXTT10=
PLAYORDER=
